<svg width="19" height="19" viewBox="0 0 19 19" fill="none" xmlns="http://www.w3.org/2000/svg">
<g filter="url(#filter0_dd_110_392)">
<path fill-rule="evenodd" clip-rule="evenodd" d="M9 17C13.4183 17 17 13.4183 17 9C17 4.58172 13.4183 1 9 1C4.58172 1 1 4.58172 1 9C1 13.4183 4.58172 17 9 17Z" fill="#EF5DA8"/>
</g>
<path fill-rule="evenodd" clip-rule="evenodd" d="M8.99995 1.79995C5.0235 1.79995 1.79995 5.0235 1.79995 8.99995C1.79995 12.9764 5.0235 16.2 8.99995 16.2C12.9764 16.2 16.2 12.9764 16.2 8.99995C16.2 5.0235 12.9764 1.79995 8.99995 1.79995Z" fill="url(#paint0_linear_110_392)"/>
<g filter="url(#filter1_d_110_392)">
<path fill-rule="evenodd" clip-rule="evenodd" d="M9 13C11.2091 13 13 11.2091 13 9C13 6.79086 11.2091 5 9 5C6.79086 5 5 6.79086 5 9C5 11.2091 6.79086 13 9 13Z" fill="url(#paint1_linear_110_392)"/>
</g>
<g filter="url(#filter2_d_110_392)">
<path fill-rule="evenodd" clip-rule="evenodd" d="M9.00005 12.2C10.7674 12.2 12.2 10.7674 12.2 9.00005C12.2 7.23274 10.7674 5.80005 9.00005 5.80005C7.23274 5.80005 5.80005 7.23274 5.80005 9.00005C5.80005 10.7674 7.23274 12.2 9.00005 12.2Z" fill="url(#paint2_linear_110_392)"/>
</g>
<defs>
<filter id="filter0_dd_110_392" x="0.8" y="0.8" width="18.2" height="18.2" filterUnits="userSpaceOnUse" color-interpolation-filters="sRGB">
<feFlood flood-opacity="0" result="BackgroundImageFix"/>
<feColorMatrix in="SourceAlpha" type="matrix" values="0 0 0 0 0 0 0 0 0 0 0 0 0 0 0 0 0 0 127 0" result="hardAlpha"/>
<feOffset dx="1" dy="1"/>
<feGaussianBlur stdDeviation="0.5"/>
<feColorMatrix type="matrix" values="0 0 0 0 0 0 0 0 0 0 0 0 0 0 0 0 0 0 0.2 0"/>
<feBlend mode="normal" in2="BackgroundImageFix" result="effect1_dropShadow_110_392"/>
<feColorMatrix in="SourceAlpha" type="matrix" values="0 0 0 0 0 0 0 0 0 0 0 0 0 0 0 0 0 0 127 0" result="hardAlpha"/>
<feOffset dx="0.4" dy="0.4"/>
<feGaussianBlur stdDeviation="0.3"/>
<feComposite in2="hardAlpha" operator="out"/>
<feColorMatrix type="matrix" values="0 0 0 0 0 0 0 0 0 0 0 0 0 0 0 0 0 0 0.2 0"/>
<feBlend mode="normal" in2="effect1_dropShadow_110_392" result="effect2_dropShadow_110_392"/>
<feBlend mode="normal" in="SourceGraphic" in2="effect2_dropShadow_110_392" result="shape"/>
</filter>
<filter id="filter1_d_110_392" x="3.8" y="3.8" width="9.6" height="9.6" filterUnits="userSpaceOnUse" color-interpolation-filters="sRGB">
<feFlood flood-opacity="0" result="BackgroundImageFix"/>
<feColorMatrix in="SourceAlpha" type="matrix" values="0 0 0 0 0 0 0 0 0 0 0 0 0 0 0 0 0 0 127 0" result="hardAlpha"/>
<feOffset dx="-0.4" dy="-0.4"/>
<feGaussianBlur stdDeviation="0.4"/>
<feComposite in2="hardAlpha" operator="out"/>
<feColorMatrix type="matrix" values="0 0 0 0 0 0 0 0 0 0 0 0 0 0 0 0 0 0 0.2 0"/>
<feBlend mode="normal" in2="BackgroundImageFix" result="effect1_dropShadow_110_392"/>
<feBlend mode="normal" in="SourceGraphic" in2="effect1_dropShadow_110_392" result="shape"/>
</filter>
<filter id="filter2_d_110_392" x="4.60005" y="4.60005" width="8.00002" height="7.9999" filterUnits="userSpaceOnUse" color-interpolation-filters="sRGB">
<feFlood flood-opacity="0" result="BackgroundImageFix"/>
<feColorMatrix in="SourceAlpha" type="matrix" values="0 0 0 0 0 0 0 0 0 0 0 0 0 0 0 0 0 0 127 0" result="hardAlpha"/>
<feOffset dx="-0.4" dy="-0.4"/>
<feGaussianBlur stdDeviation="0.4"/>
<feComposite in2="hardAlpha" operator="out"/>
<feColorMatrix type="matrix" values="0 0 0 0 0 0 0 0 0 0 0 0 0 0 0 0 0 0 0.2 0"/>
<feBlend mode="normal" in2="BackgroundImageFix" result="effect1_dropShadow_110_392"/>
<feBlend mode="normal" in="SourceGraphic" in2="effect1_dropShadow_110_392" result="shape"/>
</filter>
<linearGradient id="paint0_linear_110_392" x1="8.99995" y1="16.2" x2="8.99995" y2="1.79995" gradientUnits="userSpaceOnUse">
<stop stop-color="#F178B6"/>
<stop offset="1" stop-color="#C1106B"/>
</linearGradient>
<linearGradient id="paint1_linear_110_392" x1="9" y1="5" x2="9" y2="13" gradientUnits="userSpaceOnUse">
<stop stop-color="#EBEBEB"/>
<stop offset="1" stop-color="white"/>
</linearGradient>
<linearGradient id="paint2_linear_110_392" x1="9.00005" y1="5.80005" x2="9.00005" y2="12.2" gradientUnits="userSpaceOnUse">
<stop stop-color="white"/>
<stop offset="1" stop-color="#F7F7F7"/>
</linearGradient>
</defs>
</svg>
