<svg width="118" height="22" viewBox="0 0 118 22" fill="none" xmlns="http://www.w3.org/2000/svg">
<mask id="path-1-outside-1_79_16" maskUnits="userSpaceOnUse" x="0.238037" y="0" width="118" height="22" fill="black">
<rect fill="white" x="0.238037" width="118" height="22"/>
<path d="M1.23804 9.55912V1H4.9568C6.61501 1 7.44411 1.66438 7.44411 2.99314C7.44411 3.96676 6.8426 4.66306 5.63959 5.08204C6.91576 5.29352 7.55384 5.96189 7.55384 7.08715C7.55384 8.73513 6.64549 9.55912 4.82878 9.55912H1.23804ZM4.76172 9.02043C6.16794 9.02043 6.87105 8.38199 6.87105 7.1051C6.87105 5.97586 5.99115 5.41124 4.23134 5.41124H3.74363V4.98627C5.77574 4.80671 6.7918 4.1563 6.7918 3.03503C6.7918 2.03747 6.16591 1.53869 4.91413 1.53869H1.87815V9.02043H4.76172Z"/>
<path d="M18.1363 7.78145C18.1363 6.5325 18.9816 5.90802 20.6723 5.90802C21.2698 5.90802 21.9079 5.94793 22.5866 6.02773V5.25562C22.5866 4.29396 21.9709 3.81314 20.7394 3.81314C20.081 3.81314 19.4063 3.91289 18.7154 4.11241V3.57372C19.4063 3.37421 20.081 3.27445 20.7394 3.27445C22.3976 3.27445 23.2267 3.92486 23.2267 5.22569V9.55912H22.8365L22.6902 8.93663C21.8896 9.35162 21.1133 9.55912 20.3614 9.55912C18.878 9.55912 18.1363 8.96656 18.1363 7.78145ZM20.6723 6.44671C19.4084 6.44671 18.7764 6.88564 18.7764 7.7635C18.7764 8.60145 19.3047 9.02043 20.3614 9.02043C21.1418 9.02043 21.8835 8.81693 22.5866 8.40992V6.56642C21.9079 6.48661 21.2698 6.44671 20.6723 6.44671Z"/>
<path d="M34.3395 9.55912V3.27445H34.7967L34.876 4.31591C35.5181 3.6216 36.2334 3.27445 37.0219 3.27445V3.77722C36.2578 3.77722 35.5771 4.14233 34.9796 4.87255V9.55912H34.3395Z"/>
<path d="M48.0128 8.82291C48.6671 8.93863 49.2585 8.99649 49.7868 8.99649C51.4532 8.99649 52.2863 8.08072 52.2863 6.24919C52.2863 4.66506 51.5202 3.87299 49.988 3.87299C49.4027 3.87299 48.7443 3.98073 48.0128 4.1962V8.82291ZM47.3727 1H48.0128V3.57372C48.7809 3.37421 49.4414 3.27445 49.9941 3.27445C51.9368 3.27445 52.9081 4.28 52.9081 6.29109C52.9081 8.46977 51.886 9.55912 49.8417 9.55912C48.9232 9.55912 48.1002 9.47333 47.3727 9.30174V1Z"/>
<path d="M63.3443 7.78145C63.3443 6.5325 64.1896 5.90802 65.8803 5.90802C66.4778 5.90802 67.1159 5.94793 67.7946 6.02773V5.25562C67.7946 4.29396 67.1789 3.81314 65.9474 3.81314C65.289 3.81314 64.6143 3.91289 63.9234 4.11241V3.57372C64.6143 3.37421 65.289 3.27445 65.9474 3.27445C67.6056 3.27445 68.4347 3.92486 68.4347 5.22569V9.55912H68.0445L67.8982 8.93663C67.0976 9.35162 66.3213 9.55912 65.5694 9.55912C64.086 9.55912 63.3443 8.96656 63.3443 7.78145ZM65.8803 6.44671C64.6164 6.44671 63.9844 6.88564 63.9844 7.7635C63.9844 8.60145 64.5127 9.02043 65.5694 9.02043C66.3497 9.02043 67.0915 8.81693 67.7946 8.40992V6.56642C67.1159 6.48661 66.4778 6.44671 65.8803 6.44671Z"/>
<path d="M79.5475 9.55912V3.27445H80.0047L80.084 4.31591C80.7261 3.6216 81.4414 3.27445 82.2299 3.27445V3.77722C81.4658 3.77722 80.7851 4.14233 80.1876 4.87255V9.55912H79.5475Z"/>
<path d="M92.2149 7.78145C92.2149 6.5325 93.0602 5.90802 94.751 5.90802C95.3484 5.90802 95.9865 5.94793 96.6652 6.02773V5.25562C96.6652 4.29396 96.0495 3.81314 94.818 3.81314C94.1596 3.81314 93.485 3.91289 92.794 4.11241V3.57372C93.485 3.37421 94.1596 3.27445 94.818 3.27445C96.4762 3.27445 97.3053 3.92486 97.3053 5.22569V9.55912H96.9152L96.7688 8.93663C95.9682 9.35162 95.1919 9.55912 94.44 9.55912C92.9566 9.55912 92.2149 8.96656 92.2149 7.78145ZM94.751 6.44671C93.487 6.44671 92.855 6.88564 92.855 7.7635C92.855 8.60145 93.3833 9.02043 94.44 9.02043C95.2204 9.02043 95.9621 8.81693 96.6652 8.40992V6.56642C95.9865 6.48661 95.3484 6.44671 94.751 6.44671Z"/>
<path d="M33.0316 21V12.4409H36.7504C38.4086 12.4409 39.2377 13.1053 39.2377 14.434C39.2377 15.4076 38.6362 16.1039 37.4332 16.5229C38.7094 16.7344 39.3475 17.4028 39.3475 18.528C39.3475 20.176 38.4391 21 36.6224 21H33.0316ZM36.5553 20.4613C37.9616 20.4613 38.6647 19.8229 38.6647 18.546C38.6647 17.4167 37.7848 16.8521 36.025 16.8521H35.5372V16.4272C37.5694 16.2476 38.5854 15.5972 38.5854 14.4759C38.5854 13.4784 37.9595 12.9796 36.7077 12.9796H33.6718V20.4613H36.5553Z"/>
<path d="M50.4621 21V14.7153H50.9194L50.9986 15.7568C51.6408 15.0625 52.3561 14.7153 53.1445 14.7153V15.2181C52.3804 15.2181 51.6997 15.5832 51.1022 16.3134V21H50.4621Z"/>
<path d="M63.296 19.2223C63.296 17.9734 64.1413 17.3489 65.8321 17.3489C66.4295 17.3489 67.0676 17.3888 67.7463 17.4686V16.6965C67.7463 15.7348 67.1306 15.254 65.8991 15.254C65.2407 15.254 64.566 15.3538 63.8751 15.5533V15.0146C64.566 14.8151 65.2407 14.7153 65.8991 14.7153C67.5573 14.7153 68.3864 15.3657 68.3864 16.6666V21H67.9962L67.8499 20.3775C67.0493 20.7925 66.273 21 65.5211 21C64.0377 21 63.296 20.4074 63.296 19.2223ZM65.8321 17.8876C64.5681 17.8876 63.9361 18.3265 63.9361 19.2044C63.9361 20.0423 64.4644 20.4613 65.5211 20.4613C66.3015 20.4613 67.0432 20.2578 67.7463 19.8508V18.0073C67.0676 17.9275 66.4295 17.8876 65.8321 17.8876Z"/>
<path d="M79.6657 21V14.7153H80.1229L80.2022 15.5174C81.0191 14.9827 81.8197 14.7153 82.6041 14.7153C84.1607 14.7153 84.939 15.3757 84.939 16.6965V21H84.2989V16.6785C84.2989 15.7448 83.7238 15.278 82.5736 15.278C81.8055 15.278 81.0496 15.5433 80.3058 16.074V21H79.6657Z"/>
<path d="M100.882 15.6371C100.264 15.4216 99.6221 15.3139 98.9556 15.3139C97.3827 15.3139 96.5963 16.1059 96.5963 17.6901C96.5963 19.5216 97.3827 20.4374 98.9556 20.4374C99.6221 20.4374 100.264 20.3596 100.882 20.2039V15.6371ZM101.522 20.6229C100.827 20.8743 99.9513 21 98.8946 21C96.9072 21 95.9135 19.9107 95.9135 17.732C95.9135 15.7209 96.9255 14.7153 98.9495 14.7153C99.5835 14.7153 100.228 14.8151 100.882 15.0146V12.4409H101.522V20.6229Z"/>
<path d="M112.673 20.7007V20.1022C113.385 20.3416 114.084 20.4613 114.771 20.4613C116.116 20.4613 116.788 20.0423 116.788 19.2044C116.788 18.526 116.291 18.1869 115.295 18.1869H114.478C113.137 18.1869 112.466 17.6282 112.466 16.511C112.466 15.3139 113.354 14.7153 115.13 14.7153C115.813 14.7153 116.51 14.8151 117.221 15.0146V15.6131C116.51 15.3737 115.813 15.254 115.13 15.254C113.781 15.254 113.106 15.673 113.106 16.511C113.106 17.2292 113.563 17.5883 114.478 17.5883H115.295C116.717 17.5883 117.429 18.127 117.429 19.2044C117.429 20.4015 116.543 21 114.771 21C114.084 21 113.385 20.9002 112.673 20.7007Z"/>
</mask>
<path d="M1.23804 9.55912V1H4.9568C6.61501 1 7.44411 1.66438 7.44411 2.99314C7.44411 3.96676 6.8426 4.66306 5.63959 5.08204C6.91576 5.29352 7.55384 5.96189 7.55384 7.08715C7.55384 8.73513 6.64549 9.55912 4.82878 9.55912H1.23804ZM4.76172 9.02043C6.16794 9.02043 6.87105 8.38199 6.87105 7.1051C6.87105 5.97586 5.99115 5.41124 4.23134 5.41124H3.74363V4.98627C5.77574 4.80671 6.7918 4.1563 6.7918 3.03503C6.7918 2.03747 6.16591 1.53869 4.91413 1.53869H1.87815V9.02043H4.76172Z" fill="white"/>
<path d="M18.1363 7.78145C18.1363 6.5325 18.9816 5.90802 20.6723 5.90802C21.2698 5.90802 21.9079 5.94793 22.5866 6.02773V5.25562C22.5866 4.29396 21.9709 3.81314 20.7394 3.81314C20.081 3.81314 19.4063 3.91289 18.7154 4.11241V3.57372C19.4063 3.37421 20.081 3.27445 20.7394 3.27445C22.3976 3.27445 23.2267 3.92486 23.2267 5.22569V9.55912H22.8365L22.6902 8.93663C21.8896 9.35162 21.1133 9.55912 20.3614 9.55912C18.878 9.55912 18.1363 8.96656 18.1363 7.78145ZM20.6723 6.44671C19.4084 6.44671 18.7764 6.88564 18.7764 7.7635C18.7764 8.60145 19.3047 9.02043 20.3614 9.02043C21.1418 9.02043 21.8835 8.81693 22.5866 8.40992V6.56642C21.9079 6.48661 21.2698 6.44671 20.6723 6.44671Z" fill="white"/>
<path d="M34.3395 9.55912V3.27445H34.7967L34.876 4.31591C35.5181 3.6216 36.2334 3.27445 37.0219 3.27445V3.77722C36.2578 3.77722 35.5771 4.14233 34.9796 4.87255V9.55912H34.3395Z" fill="white"/>
<path d="M48.0128 8.82291C48.6671 8.93863 49.2585 8.99649 49.7868 8.99649C51.4532 8.99649 52.2863 8.08072 52.2863 6.24919C52.2863 4.66506 51.5202 3.87299 49.988 3.87299C49.4027 3.87299 48.7443 3.98073 48.0128 4.1962V8.82291ZM47.3727 1H48.0128V3.57372C48.7809 3.37421 49.4414 3.27445 49.9941 3.27445C51.9368 3.27445 52.9081 4.28 52.9081 6.29109C52.9081 8.46977 51.886 9.55912 49.8417 9.55912C48.9232 9.55912 48.1002 9.47333 47.3727 9.30174V1Z" fill="white"/>
<path d="M63.3443 7.78145C63.3443 6.5325 64.1896 5.90802 65.8803 5.90802C66.4778 5.90802 67.1159 5.94793 67.7946 6.02773V5.25562C67.7946 4.29396 67.1789 3.81314 65.9474 3.81314C65.289 3.81314 64.6143 3.91289 63.9234 4.11241V3.57372C64.6143 3.37421 65.289 3.27445 65.9474 3.27445C67.6056 3.27445 68.4347 3.92486 68.4347 5.22569V9.55912H68.0445L67.8982 8.93663C67.0976 9.35162 66.3213 9.55912 65.5694 9.55912C64.086 9.55912 63.3443 8.96656 63.3443 7.78145ZM65.8803 6.44671C64.6164 6.44671 63.9844 6.88564 63.9844 7.7635C63.9844 8.60145 64.5127 9.02043 65.5694 9.02043C66.3497 9.02043 67.0915 8.81693 67.7946 8.40992V6.56642C67.1159 6.48661 66.4778 6.44671 65.8803 6.44671Z" fill="white"/>
<path d="M79.5475 9.55912V3.27445H80.0047L80.084 4.31591C80.7261 3.6216 81.4414 3.27445 82.2299 3.27445V3.77722C81.4658 3.77722 80.7851 4.14233 80.1876 4.87255V9.55912H79.5475Z" fill="white"/>
<path d="M92.2149 7.78145C92.2149 6.5325 93.0602 5.90802 94.751 5.90802C95.3484 5.90802 95.9865 5.94793 96.6652 6.02773V5.25562C96.6652 4.29396 96.0495 3.81314 94.818 3.81314C94.1596 3.81314 93.485 3.91289 92.794 4.11241V3.57372C93.485 3.37421 94.1596 3.27445 94.818 3.27445C96.4762 3.27445 97.3053 3.92486 97.3053 5.22569V9.55912H96.9152L96.7688 8.93663C95.9682 9.35162 95.1919 9.55912 94.44 9.55912C92.9566 9.55912 92.2149 8.96656 92.2149 7.78145ZM94.751 6.44671C93.487 6.44671 92.855 6.88564 92.855 7.7635C92.855 8.60145 93.3833 9.02043 94.44 9.02043C95.2204 9.02043 95.9621 8.81693 96.6652 8.40992V6.56642C95.9865 6.48661 95.3484 6.44671 94.751 6.44671Z" fill="white"/>
<path d="M33.0316 21V12.4409H36.7504C38.4086 12.4409 39.2377 13.1053 39.2377 14.434C39.2377 15.4076 38.6362 16.1039 37.4332 16.5229C38.7094 16.7344 39.3475 17.4028 39.3475 18.528C39.3475 20.176 38.4391 21 36.6224 21H33.0316ZM36.5553 20.4613C37.9616 20.4613 38.6647 19.8229 38.6647 18.546C38.6647 17.4167 37.7848 16.8521 36.025 16.8521H35.5372V16.4272C37.5694 16.2476 38.5854 15.5972 38.5854 14.4759C38.5854 13.4784 37.9595 12.9796 36.7077 12.9796H33.6718V20.4613H36.5553Z" fill="white"/>
<path d="M50.4621 21V14.7153H50.9194L50.9986 15.7568C51.6408 15.0625 52.3561 14.7153 53.1445 14.7153V15.2181C52.3804 15.2181 51.6997 15.5832 51.1022 16.3134V21H50.4621Z" fill="white"/>
<path d="M63.296 19.2223C63.296 17.9734 64.1413 17.3489 65.8321 17.3489C66.4295 17.3489 67.0676 17.3888 67.7463 17.4686V16.6965C67.7463 15.7348 67.1306 15.254 65.8991 15.254C65.2407 15.254 64.566 15.3538 63.8751 15.5533V15.0146C64.566 14.8151 65.2407 14.7153 65.8991 14.7153C67.5573 14.7153 68.3864 15.3657 68.3864 16.6666V21H67.9962L67.8499 20.3775C67.0493 20.7925 66.273 21 65.5211 21C64.0377 21 63.296 20.4074 63.296 19.2223ZM65.8321 17.8876C64.5681 17.8876 63.9361 18.3265 63.9361 19.2044C63.9361 20.0423 64.4644 20.4613 65.5211 20.4613C66.3015 20.4613 67.0432 20.2578 67.7463 19.8508V18.0073C67.0676 17.9275 66.4295 17.8876 65.8321 17.8876Z" fill="white"/>
<path d="M79.6657 21V14.7153H80.1229L80.2022 15.5174C81.0191 14.9827 81.8197 14.7153 82.6041 14.7153C84.1607 14.7153 84.939 15.3757 84.939 16.6965V21H84.2989V16.6785C84.2989 15.7448 83.7238 15.278 82.5736 15.278C81.8055 15.278 81.0496 15.5433 80.3058 16.074V21H79.6657Z" fill="white"/>
<path d="M100.882 15.6371C100.264 15.4216 99.6221 15.3139 98.9556 15.3139C97.3827 15.3139 96.5963 16.1059 96.5963 17.6901C96.5963 19.5216 97.3827 20.4374 98.9556 20.4374C99.6221 20.4374 100.264 20.3596 100.882 20.2039V15.6371ZM101.522 20.6229C100.827 20.8743 99.9513 21 98.8946 21C96.9072 21 95.9135 19.9107 95.9135 17.732C95.9135 15.7209 96.9255 14.7153 98.9495 14.7153C99.5835 14.7153 100.228 14.8151 100.882 15.0146V12.4409H101.522V20.6229Z" fill="white"/>
<path d="M112.673 20.7007V20.1022C113.385 20.3416 114.084 20.4613 114.771 20.4613C116.116 20.4613 116.788 20.0423 116.788 19.2044C116.788 18.526 116.291 18.1869 115.295 18.1869H114.478C113.137 18.1869 112.466 17.6282 112.466 16.511C112.466 15.3139 113.354 14.7153 115.13 14.7153C115.813 14.7153 116.51 14.8151 117.221 15.0146V15.6131C116.51 15.3737 115.813 15.254 115.13 15.254C113.781 15.254 113.106 15.673 113.106 16.511C113.106 17.2292 113.563 17.5883 114.478 17.5883H115.295C116.717 17.5883 117.429 18.127 117.429 19.2044C117.429 20.4015 116.543 21 114.771 21C114.084 21 113.385 20.9002 112.673 20.7007Z" fill="white"/>
<path d="M1.23804 9.55912V1H4.9568C6.61501 1 7.44411 1.66438 7.44411 2.99314C7.44411 3.96676 6.8426 4.66306 5.63959 5.08204C6.91576 5.29352 7.55384 5.96189 7.55384 7.08715C7.55384 8.73513 6.64549 9.55912 4.82878 9.55912H1.23804ZM4.76172 9.02043C6.16794 9.02043 6.87105 8.38199 6.87105 7.1051C6.87105 5.97586 5.99115 5.41124 4.23134 5.41124H3.74363V4.98627C5.77574 4.80671 6.7918 4.1563 6.7918 3.03503C6.7918 2.03747 6.16591 1.53869 4.91413 1.53869H1.87815V9.02043H4.76172Z" stroke="white" mask="url(#path-1-outside-1_79_16)"/>
<path d="M18.1363 7.78145C18.1363 6.5325 18.9816 5.90802 20.6723 5.90802C21.2698 5.90802 21.9079 5.94793 22.5866 6.02773V5.25562C22.5866 4.29396 21.9709 3.81314 20.7394 3.81314C20.081 3.81314 19.4063 3.91289 18.7154 4.11241V3.57372C19.4063 3.37421 20.081 3.27445 20.7394 3.27445C22.3976 3.27445 23.2267 3.92486 23.2267 5.22569V9.55912H22.8365L22.6902 8.93663C21.8896 9.35162 21.1133 9.55912 20.3614 9.55912C18.878 9.55912 18.1363 8.96656 18.1363 7.78145ZM20.6723 6.44671C19.4084 6.44671 18.7764 6.88564 18.7764 7.7635C18.7764 8.60145 19.3047 9.02043 20.3614 9.02043C21.1418 9.02043 21.8835 8.81693 22.5866 8.40992V6.56642C21.9079 6.48661 21.2698 6.44671 20.6723 6.44671Z" stroke="white" mask="url(#path-1-outside-1_79_16)"/>
<path d="M34.3395 9.55912V3.27445H34.7967L34.876 4.31591C35.5181 3.6216 36.2334 3.27445 37.0219 3.27445V3.77722C36.2578 3.77722 35.5771 4.14233 34.9796 4.87255V9.55912H34.3395Z" stroke="white" mask="url(#path-1-outside-1_79_16)"/>
<path d="M48.0128 8.82291C48.6671 8.93863 49.2585 8.99649 49.7868 8.99649C51.4532 8.99649 52.2863 8.08072 52.2863 6.24919C52.2863 4.66506 51.5202 3.87299 49.988 3.87299C49.4027 3.87299 48.7443 3.98073 48.0128 4.1962V8.82291ZM47.3727 1H48.0128V3.57372C48.7809 3.37421 49.4414 3.27445 49.9941 3.27445C51.9368 3.27445 52.9081 4.28 52.9081 6.29109C52.9081 8.46977 51.886 9.55912 49.8417 9.55912C48.9232 9.55912 48.1002 9.47333 47.3727 9.30174V1Z" stroke="white" mask="url(#path-1-outside-1_79_16)"/>
<path d="M63.3443 7.78145C63.3443 6.5325 64.1896 5.90802 65.8803 5.90802C66.4778 5.90802 67.1159 5.94793 67.7946 6.02773V5.25562C67.7946 4.29396 67.1789 3.81314 65.9474 3.81314C65.289 3.81314 64.6143 3.91289 63.9234 4.11241V3.57372C64.6143 3.37421 65.289 3.27445 65.9474 3.27445C67.6056 3.27445 68.4347 3.92486 68.4347 5.22569V9.55912H68.0445L67.8982 8.93663C67.0976 9.35162 66.3213 9.55912 65.5694 9.55912C64.086 9.55912 63.3443 8.96656 63.3443 7.78145ZM65.8803 6.44671C64.6164 6.44671 63.9844 6.88564 63.9844 7.7635C63.9844 8.60145 64.5127 9.02043 65.5694 9.02043C66.3497 9.02043 67.0915 8.81693 67.7946 8.40992V6.56642C67.1159 6.48661 66.4778 6.44671 65.8803 6.44671Z" stroke="white" mask="url(#path-1-outside-1_79_16)"/>
<path d="M79.5475 9.55912V3.27445H80.0047L80.084 4.31591C80.7261 3.6216 81.4414 3.27445 82.2299 3.27445V3.77722C81.4658 3.77722 80.7851 4.14233 80.1876 4.87255V9.55912H79.5475Z" stroke="white" mask="url(#path-1-outside-1_79_16)"/>
<path d="M92.2149 7.78145C92.2149 6.5325 93.0602 5.90802 94.751 5.90802C95.3484 5.90802 95.9865 5.94793 96.6652 6.02773V5.25562C96.6652 4.29396 96.0495 3.81314 94.818 3.81314C94.1596 3.81314 93.485 3.91289 92.794 4.11241V3.57372C93.485 3.37421 94.1596 3.27445 94.818 3.27445C96.4762 3.27445 97.3053 3.92486 97.3053 5.22569V9.55912H96.9152L96.7688 8.93663C95.9682 9.35162 95.1919 9.55912 94.44 9.55912C92.9566 9.55912 92.2149 8.96656 92.2149 7.78145ZM94.751 6.44671C93.487 6.44671 92.855 6.88564 92.855 7.7635C92.855 8.60145 93.3833 9.02043 94.44 9.02043C95.2204 9.02043 95.9621 8.81693 96.6652 8.40992V6.56642C95.9865 6.48661 95.3484 6.44671 94.751 6.44671Z" stroke="white" mask="url(#path-1-outside-1_79_16)"/>
<path d="M33.0316 21V12.4409H36.7504C38.4086 12.4409 39.2377 13.1053 39.2377 14.434C39.2377 15.4076 38.6362 16.1039 37.4332 16.5229C38.7094 16.7344 39.3475 17.4028 39.3475 18.528C39.3475 20.176 38.4391 21 36.6224 21H33.0316ZM36.5553 20.4613C37.9616 20.4613 38.6647 19.8229 38.6647 18.546C38.6647 17.4167 37.7848 16.8521 36.025 16.8521H35.5372V16.4272C37.5694 16.2476 38.5854 15.5972 38.5854 14.4759C38.5854 13.4784 37.9595 12.9796 36.7077 12.9796H33.6718V20.4613H36.5553Z" stroke="white" mask="url(#path-1-outside-1_79_16)"/>
<path d="M50.4621 21V14.7153H50.9194L50.9986 15.7568C51.6408 15.0625 52.3561 14.7153 53.1445 14.7153V15.2181C52.3804 15.2181 51.6997 15.5832 51.1022 16.3134V21H50.4621Z" stroke="white" mask="url(#path-1-outside-1_79_16)"/>
<path d="M63.296 19.2223C63.296 17.9734 64.1413 17.3489 65.8321 17.3489C66.4295 17.3489 67.0676 17.3888 67.7463 17.4686V16.6965C67.7463 15.7348 67.1306 15.254 65.8991 15.254C65.2407 15.254 64.566 15.3538 63.8751 15.5533V15.0146C64.566 14.8151 65.2407 14.7153 65.8991 14.7153C67.5573 14.7153 68.3864 15.3657 68.3864 16.6666V21H67.9962L67.8499 20.3775C67.0493 20.7925 66.273 21 65.5211 21C64.0377 21 63.296 20.4074 63.296 19.2223ZM65.8321 17.8876C64.5681 17.8876 63.9361 18.3265 63.9361 19.2044C63.9361 20.0423 64.4644 20.4613 65.5211 20.4613C66.3015 20.4613 67.0432 20.2578 67.7463 19.8508V18.0073C67.0676 17.9275 66.4295 17.8876 65.8321 17.8876Z" stroke="white" mask="url(#path-1-outside-1_79_16)"/>
<path d="M79.6657 21V14.7153H80.1229L80.2022 15.5174C81.0191 14.9827 81.8197 14.7153 82.6041 14.7153C84.1607 14.7153 84.939 15.3757 84.939 16.6965V21H84.2989V16.6785C84.2989 15.7448 83.7238 15.278 82.5736 15.278C81.8055 15.278 81.0496 15.5433 80.3058 16.074V21H79.6657Z" stroke="white" mask="url(#path-1-outside-1_79_16)"/>
<path d="M100.882 15.6371C100.264 15.4216 99.6221 15.3139 98.9556 15.3139C97.3827 15.3139 96.5963 16.1059 96.5963 17.6901C96.5963 19.5216 97.3827 20.4374 98.9556 20.4374C99.6221 20.4374 100.264 20.3596 100.882 20.2039V15.6371ZM101.522 20.6229C100.827 20.8743 99.9513 21 98.8946 21C96.9072 21 95.9135 19.9107 95.9135 17.732C95.9135 15.7209 96.9255 14.7153 98.9495 14.7153C99.5835 14.7153 100.228 14.8151 100.882 15.0146V12.4409H101.522V20.6229Z" stroke="white" mask="url(#path-1-outside-1_79_16)"/>
<path d="M112.673 20.7007V20.1022C113.385 20.3416 114.084 20.4613 114.771 20.4613C116.116 20.4613 116.788 20.0423 116.788 19.2044C116.788 18.526 116.291 18.1869 115.295 18.1869H114.478C113.137 18.1869 112.466 17.6282 112.466 16.511C112.466 15.3139 113.354 14.7153 115.13 14.7153C115.813 14.7153 116.51 14.8151 117.221 15.0146V15.6131C116.51 15.3737 115.813 15.254 115.13 15.254C113.781 15.254 113.106 15.673 113.106 16.511C113.106 17.2292 113.563 17.5883 114.478 17.5883H115.295C116.717 17.5883 117.429 18.127 117.429 19.2044C117.429 20.4015 116.543 21 114.771 21C114.084 21 113.385 20.9002 112.673 20.7007Z" stroke="white" mask="url(#path-1-outside-1_79_16)"/>
</svg>
